<svg width="25" height="68" viewBox="0 0 25 68" fill="none" xmlns="http://www.w3.org/2000/svg">
<path d="M6.06055 53.2174H8.6363V55.1884H6.06055V53.2174ZM11.2121 53.2174H13.7878V55.1884H11.2121V53.2174ZM16.3636 53.2174H18.9393V55.1884H16.3636V53.2174ZM6.06055 57.1594H8.6363V59.1305H6.06055V57.1594ZM11.2121 57.1594H13.7878V59.1305H11.2121V57.1594ZM16.3636 57.1594H18.9393V59.1305H16.3636V57.1594ZM6.06055 61.1015H8.6363V63.0725H6.06055V61.1015ZM11.2121 61.1015H13.7878V63.0725H11.2121V61.1015ZM16.3636 61.1015H18.9393V63.0725H16.3636V61.1015Z" fill="#333333"/>
<path d="M13.9395 44.3478H11.3638V46.3189H13.9395V44.3478Z" fill="#333333"/>
<path d="M13.9395 48.0435H11.3638V50.0145H13.9395V48.0435Z" fill="#333333"/>
<path d="M19.2423 48.0435H16.6665V50.0145H19.2423V48.0435Z" fill="#333333"/>
<path d="M8.6363 48.0435H6.06055V50.0145H8.6363V48.0435Z" fill="#333333"/>
<path d="M18.9393 14.7826H6.06055V35.4782H18.9393V14.7826Z" fill="#333333"/>
<path fill-rule="evenodd" clip-rule="evenodd" d="M7.27295 10.3478C4.51153 10.3478 2.27295 12.5864 2.27295 15.3478V34.9131C2.27295 37.6745 4.51152 39.9131 7.27294 39.9131H17.98C20.7414 39.9131 22.98 37.6745 22.98 34.9131V15.3478C22.98 12.5864 20.7414 10.3478 17.98 10.3478H7.27295ZM6.29313 12.8116C5.18856 12.8116 4.29313 13.707 4.29313 14.8116V35.4493C4.29313 36.5539 5.18856 37.4493 6.29313 37.4493H18.9598C20.0644 37.4493 20.9598 36.5539 20.9598 35.4493V14.8116C20.9598 13.707 20.0644 12.8116 18.9598 12.8116H6.29313Z" fill="#333333"/>
<path fill-rule="evenodd" clip-rule="evenodd" d="M7.14648 38.4348C4.38506 38.4348 2.14648 40.6733 2.14648 43.4347V63C2.14648 65.7614 4.38506 68 7.14648 68H17.8536C20.615 68 22.8536 65.7614 22.8536 63V43.4348C22.8536 40.6733 20.615 38.4348 17.8536 38.4348H7.14648ZM6.16667 40.8985C5.0621 40.8985 4.16667 41.7939 4.16667 42.8985V63.5362C4.16667 64.6408 5.0621 65.5362 6.16667 65.5362H18.8333C19.9379 65.5362 20.8333 64.6408 20.8333 63.5362V42.8985C20.8333 41.794 19.9379 40.8985 18.8333 40.8985H6.16667Z" fill="#333333"/>
</svg>
