<svg width="79" height="48" viewBox="0 0 79 48" fill="none" xmlns="http://www.w3.org/2000/svg">
<path d="M62.5862 22.0934C63.2249 21.4525 63.2249 20.4133 62.5862 19.7723C61.9475 19.1313 60.9119 19.1313 60.2732 19.7723C59.6345 20.4133 59.6345 21.4525 60.2732 22.0934C60.9119 22.7344 61.9475 22.7344 62.5862 22.0934Z" fill="#1271B7"/>
<path d="M67.8371 27.2142C68.0447 26.332 67.5003 25.448 66.6212 25.2397C65.7422 25.0314 64.8613 25.5777 64.6537 26.4598C64.4461 27.342 64.9905 28.226 65.8695 28.4343C66.7486 28.6426 67.6295 28.0963 67.8371 27.2142Z" fill="#1271B7"/>
<path d="M62.5798 33.9101C63.2186 33.2691 63.2186 32.2299 62.5798 31.589C61.9411 30.948 60.9056 30.948 60.2668 31.589C59.6281 32.2299 59.6281 33.2691 60.2668 33.9101C60.9056 34.551 61.9411 34.551 62.5798 33.9101Z" fill="#1271B7"/>
<path d="M53.3737 39.0447C53.5813 38.1626 53.0369 37.2786 52.1579 37.0703C51.2788 36.8619 50.3979 37.4082 50.1903 38.2904C49.9827 39.1726 50.5271 40.0566 51.4062 40.2649C52.2853 40.4732 53.1662 39.9269 53.3737 39.0447Z" fill="#1271B7"/>
<path d="M67.8435 9.47979C68.051 8.59762 67.5067 7.71362 66.6276 7.50531C65.7485 7.29701 64.8676 7.84328 64.66 8.72545C64.4525 9.60762 64.9968 10.4916 65.8759 10.6999C66.755 10.9082 67.6359 10.362 67.8435 9.47979Z" fill="#1271B7"/>
<path d="M57.7673 16.1737C58.4061 15.5328 58.4061 14.4936 57.7673 13.8526C57.1286 13.2117 56.0931 13.2117 55.4543 13.8526C54.8156 14.4936 54.8156 15.5328 55.4543 16.1737C56.0931 16.8147 57.1286 16.8147 57.7673 16.1737Z" fill="#1271B7"/>
<path d="M52.9377 10.265C53.5765 9.62409 53.5765 8.58489 52.9378 7.94393C52.299 7.30298 51.2635 7.30298 50.6248 7.94393C49.986 8.58489 49.986 9.62409 50.6248 10.265C51.2635 10.906 52.299 10.906 52.9377 10.265Z" fill="#CBCBCA"/>
<path d="M57.7649 10.2599C58.4036 9.61896 58.4036 8.57977 57.7649 7.93881C57.1262 7.29785 56.0906 7.29785 55.4519 7.93881C54.8132 8.57977 54.8132 9.61896 55.4519 10.2599C56.0906 10.9009 57.1262 10.9009 57.7649 10.2599Z" fill="#CBCBCA"/>
<path d="M63.0192 9.48662C63.2268 8.60446 62.6825 7.72045 61.8034 7.51215C60.9243 7.30384 60.0434 7.85012 59.8358 8.73229C59.6282 9.61445 60.1726 10.4985 61.0517 10.7068C61.9308 10.9151 62.8117 10.3688 63.0192 9.48662Z" fill="#CBCBCA"/>
<path d="M52.9402 16.1789C53.5789 15.5379 53.5789 14.4987 52.9402 13.8578C52.3015 13.2168 51.2659 13.2168 50.6272 13.8578C49.9885 14.4987 49.9885 15.5379 50.6272 16.1789C51.2659 16.8198 52.3015 16.8198 52.9402 16.1789Z" fill="#CBCBCA"/>
<path d="M63.0222 15.3995C63.2297 14.5173 62.6854 13.6333 61.8063 13.425C60.9272 13.2167 60.0463 13.763 59.8387 14.6451C59.6312 15.5273 60.1755 16.4113 61.0546 16.6196C61.9337 16.8279 62.8146 16.2816 63.0222 15.3995Z" fill="#CBCBCA"/>
<path d="M67.8464 15.3924C68.054 14.5102 67.5096 13.6262 66.6305 13.4179C65.7514 13.2096 64.8705 13.7559 64.663 14.638C64.4554 15.5202 64.9997 16.4042 65.8788 16.6125C66.7579 16.8208 67.6388 16.2746 67.8464 15.3924Z" fill="#CBCBCA"/>
<path d="M67.4133 22.0883C68.0521 21.4473 68.0521 20.4081 67.4133 19.7672C66.7746 19.1262 65.7391 19.1262 65.1003 19.7672C64.4616 20.4081 64.4616 21.4473 65.1003 22.0883C65.7391 22.7292 66.7746 22.7292 67.4133 22.0883Z" fill="#CBCBCA"/>
<path d="M63.0129 27.221C63.2205 26.3388 62.6761 25.4548 61.797 25.2465C60.9179 25.0382 60.037 25.5845 59.8295 26.4667C59.6219 27.3488 60.1662 28.2328 61.0453 28.4411C61.9244 28.6494 62.8053 28.1032 63.0129 27.221Z" fill="#CBCBCA"/>
<path d="M67.407 33.9052C68.0457 33.2642 68.0457 32.225 67.407 31.5841C66.7683 30.9431 65.7327 30.9431 65.094 31.5841C64.4553 32.225 64.4553 33.2642 65.094 33.9052C65.7327 34.5461 66.7683 34.5461 67.407 33.9052Z" fill="#CBCBCA"/>
<path d="M58.1979 39.0379C58.4055 38.1557 57.8612 37.2717 56.9821 37.0634C56.103 36.8551 55.2221 37.4014 55.0145 38.2836C54.8069 39.1657 55.3513 40.0497 56.2304 40.258C57.1095 40.4663 57.9904 39.9201 58.1979 39.0379Z" fill="#CBCBCA"/>
<path d="M62.5818 39.8241C63.2205 39.1832 63.2205 38.144 62.5818 37.503C61.9431 36.8621 60.9075 36.8621 60.2688 37.503C59.6301 38.144 59.6301 39.1832 60.2688 39.8241C60.9075 40.4651 61.9431 40.4651 62.5818 39.8241Z" fill="#CBCBCA"/>
<path d="M67.4089 39.819C68.0476 39.178 68.0477 38.1388 67.4089 37.4979C66.7702 36.8569 65.7347 36.8569 65.0959 37.4979C64.4572 38.1388 64.4572 39.178 65.0959 39.819C65.7347 40.46 66.7702 40.46 67.4089 39.819Z" fill="#CBCBCA"/>
<path d="M57.7698 22.0876C58.4085 21.4466 58.4085 20.4074 57.7698 19.7664C57.1311 19.1255 56.0955 19.1255 55.4568 19.7664C54.8181 20.4074 54.8181 21.4466 55.4568 22.0876C56.0955 22.7285 57.1311 22.7285 57.7698 22.0876Z" fill="#CBCBCA"/>
<path d="M21.3393 34.8386L14.6736 27.5148V34.8386H12.3438V18.9832H14.6736V26.849L21.2621 18.9832H24.0395L17.2041 27.1277L24.2709 34.8541H21.3393V34.8386Z" fill="#1271B7"/>
<path d="M26.5083 18.9832H28.8382V34.8386H26.5083V18.9832Z" fill="#1271B7"/>
<path d="M31.8779 32.2992L33.5752 30.8283C34.5318 32.0979 35.9822 32.9805 37.5252 32.9805C39.2379 32.9805 40.3643 32.005 40.3643 30.7354C40.3643 26.9263 32.3408 28.0102 32.3408 22.8231C32.3717 20.5315 34.4547 18.7354 37.3246 18.7354C39.5002 18.7354 41.2438 19.8192 42.3084 20.996L40.7809 22.4515C39.9477 21.5844 38.7287 20.7947 37.3709 20.7947C35.7971 20.7947 34.717 21.6618 34.717 22.8386C34.6861 26.2915 42.7867 25.3934 42.7096 30.7508C42.6787 33.1354 40.7037 35.0554 37.3709 35.0554C35.041 35.0708 32.9889 33.8631 31.8779 32.2992Z" fill="#1271B7"/>
<path d="M54.8832 31.463H47.5232L45.9957 34.8385H43.4189L50.9949 18.7507H51.3344L58.9566 34.8385H56.4107L54.8832 31.463ZM53.9574 29.3881L51.2109 23.272L48.4645 29.3881H53.9574Z" fill="#1271B7"/>
</svg>
