<svg width="44" height="44" viewBox="0 0 44 44" fill="none" xmlns="http://www.w3.org/2000/svg">
<path fill-rule="evenodd" clip-rule="evenodd" d="M22 44C34.1503 44 44 34.1503 44 22C44 9.84974 34.1503 0 22 0C9.84974 0 0 9.84974 0 22C0 34.1503 9.84974 44 22 44ZM22 40.7895C32.3771 40.7895 40.7895 32.3771 40.7895 22C40.7895 11.6229 32.3771 3.21053 22 3.21053C11.6229 3.21053 3.21053 11.6229 3.21053 22C3.21053 32.3771 11.6229 40.7895 22 40.7895Z" fill="#333333"/>
<path d="M6.69955 23.7695L8.80893 23.5645C8.93588 24.2725 9.19223 24.7925 9.57797 25.1245C9.9686 25.4565 10.4935 25.6226 11.1527 25.6226C11.8509 25.6226 12.3758 25.4761 12.7274 25.1831C13.0838 24.8853 13.2621 24.5386 13.2621 24.1431C13.2621 23.8892 13.1864 23.6743 13.035 23.4985C12.8885 23.3179 12.6297 23.1616 12.2586 23.0298C12.0047 22.9419 11.4261 22.7856 10.5228 22.561C9.36069 22.2729 8.54526 21.9189 8.07651 21.499C7.41733 20.9082 7.08774 20.188 7.08774 19.3384C7.08774 18.7915 7.24154 18.2812 7.54916 17.8076C7.86166 17.3291 8.30844 16.9653 8.88949 16.7163C9.47543 16.4673 10.181 16.3428 11.0062 16.3428C12.3538 16.3428 13.367 16.6382 14.0457 17.229C14.7293 17.8198 15.0882 18.6084 15.1224 19.5947L12.9544 19.6899C12.8617 19.1382 12.6615 18.7427 12.3538 18.5034C12.0511 18.2593 11.5946 18.1372 10.9842 18.1372C10.3543 18.1372 9.86117 18.2666 9.50473 18.5254C9.27524 18.6914 9.16049 18.9136 9.16049 19.1919C9.16049 19.4458 9.26791 19.6631 9.48276 19.8438C9.75619 20.0732 10.4203 20.3125 11.4749 20.5615C12.5296 20.8105 13.3084 21.0693 13.8114 21.3379C14.3192 21.6016 14.7147 21.9653 14.9979 22.4292C15.286 22.8882 15.43 23.457 15.43 24.1357C15.43 24.751 15.2591 25.3271 14.9173 25.8643C14.5755 26.4014 14.0921 26.8018 13.4671 27.0654C12.8421 27.3242 12.0633 27.4536 11.1307 27.4536C9.77328 27.4536 8.7308 27.1411 8.00326 26.5161C7.27572 25.8862 6.84115 24.9707 6.69955 23.7695ZM16.8143 21.9604C16.8143 20.8667 16.9779 19.9487 17.305 19.2065C17.5492 18.6597 17.8812 18.1689 18.3011 17.7344C18.7259 17.2998 19.1898 16.9775 19.6927 16.7676C20.3617 16.4844 21.1331 16.3428 22.0072 16.3428C23.5892 16.3428 24.8538 16.8335 25.8011 17.8149C26.7533 18.7964 27.2293 20.1611 27.2293 21.9092C27.2293 23.6426 26.7581 25 25.8158 25.9814C24.8734 26.958 23.6136 27.4463 22.0365 27.4463C20.4398 27.4463 19.1703 26.9604 18.2279 25.9888C17.2855 25.0122 16.8143 23.6694 16.8143 21.9604ZM19.0482 21.8872C19.0482 23.103 19.3289 24.0259 19.8905 24.6558C20.452 25.2808 21.1649 25.5933 22.0291 25.5933C22.8934 25.5933 23.6014 25.2832 24.1532 24.6631C24.7098 24.0381 24.9881 23.103 24.9881 21.8579C24.9881 20.6274 24.7171 19.7095 24.1751 19.104C23.638 18.4985 22.9227 18.1958 22.0291 18.1958C21.1356 18.1958 20.4154 18.5034 19.8685 19.1187C19.3216 19.729 19.0482 20.6519 19.0482 21.8872ZM28.3792 23.7695L30.4886 23.5645C30.6156 24.2725 30.8719 24.7925 31.2577 25.1245C31.6483 25.4565 32.1732 25.6226 32.8324 25.6226C33.5306 25.6226 34.0555 25.4761 34.4071 25.1831C34.7635 24.8853 34.9417 24.5386 34.9417 24.1431C34.9417 23.8892 34.8661 23.6743 34.7147 23.4985C34.5682 23.3179 34.3094 23.1616 33.9383 23.0298C33.6844 22.9419 33.1058 22.7856 32.2025 22.561C31.0404 22.2729 30.2249 21.9189 29.7562 21.499C29.097 20.9082 28.7674 20.188 28.7674 19.3384C28.7674 18.7915 28.9212 18.2812 29.2288 17.8076C29.5413 17.3291 29.9881 16.9653 30.5692 16.7163C31.1551 16.4673 31.8607 16.3428 32.6859 16.3428C34.0335 16.3428 35.0467 16.6382 35.7254 17.229C36.409 17.8198 36.7679 18.6084 36.8021 19.5947L34.6341 19.6899C34.5413 19.1382 34.3412 18.7427 34.0335 18.5034C33.7308 18.2593 33.2743 18.1372 32.6639 18.1372C32.034 18.1372 31.5409 18.2666 31.1844 18.5254C30.9549 18.6914 30.8402 18.9136 30.8402 19.1919C30.8402 19.4458 30.9476 19.6631 31.1624 19.8438C31.4359 20.0732 32.0999 20.3125 33.1546 20.5615C34.2093 20.8105 34.9881 21.0693 35.4911 21.3379C35.9989 21.6016 36.3944 21.9653 36.6776 22.4292C36.9657 22.8882 37.1097 23.457 37.1097 24.1357C37.1097 24.751 36.9388 25.3271 36.597 25.8643C36.2552 26.4014 35.7718 26.8018 35.1468 27.0654C34.5218 27.3242 33.743 27.4536 32.8104 27.4536C31.453 27.4536 30.4105 27.1411 29.683 26.5161C28.9554 25.8862 28.5208 24.9707 28.3792 23.7695Z" fill="#333333"/>
</svg>
