<svg width="54" height="54" viewBox="0 0 54 54" fill="none" xmlns="http://www.w3.org/2000/svg">
<path d="M40.5 41.625C42.3675 41.625 43.875 40.1175 43.875 38.25C43.875 36.3825 42.3675 34.875 40.5 34.875C38.6325 34.875 37.125 36.3825 37.125 38.25C37.125 40.1175 38.6325 41.625 40.5 41.625ZM43.875 21.375H38.25V27H48.285L43.875 21.375ZM13.5 41.625C15.3675 41.625 16.875 40.1175 16.875 38.25C16.875 36.3825 15.3675 34.875 13.5 34.875C11.6325 34.875 10.125 36.3825 10.125 38.25C10.125 40.1175 11.6325 41.625 13.5 41.625ZM45 18L51.75 27V38.25H47.25C47.25 41.985 44.235 45 40.5 45C36.765 45 33.75 41.985 33.75 38.25H20.25C20.25 41.985 17.235 45 13.5 45C9.765 45 6.75 41.985 6.75 38.25H2.25V13.5C2.25 11.0025 4.2525 9 6.75 9H38.25V18H45ZM6.75 13.5V33.75H8.46C9.6975 32.3775 11.4975 31.5 13.5 31.5C15.5025 31.5 17.3025 32.3775 18.54 33.75H33.75V13.5H6.75ZM22.5 15.75L30.375 23.625L22.5 31.5V25.875H11.25V21.375H22.5V15.75Z" fill="black"/>
</svg>
