<svg width="36" height="38" viewBox="0 0 36 38" fill="none" xmlns="http://www.w3.org/2000/svg">
<g filter="url(#filter0_dd)">
<path d="M2 16C2 7.16344 9.16344 0 18 0C26.8366 0 34 7.16344 34 16C34 24.8366 26.8366 32 18 32C9.16344 32 2 24.8366 2 16Z" fill="#55ACEE"/>
<path d="M17.5208 13.0051L17.5544 13.5587L16.9948 13.4909C14.9579 13.2311 13.1784 12.3498 11.6676 10.8696L10.9289 10.1352L10.7387 10.6776C10.3358 11.8865 10.5932 13.1633 11.4325 14.022C11.8802 14.4965 11.7795 14.5643 11.0073 14.2819C10.7387 14.1915 10.5036 14.1237 10.4812 14.1576C10.4029 14.2367 10.6715 15.2648 10.8841 15.6716C11.1751 16.2365 11.7683 16.7902 12.4174 17.1178L12.9658 17.3777L12.3167 17.389C11.6899 17.389 11.6676 17.4003 11.7347 17.6376C11.9585 18.372 12.8427 19.1516 13.8276 19.4905L14.5214 19.7278L13.9171 20.0894C13.0218 20.6091 11.9697 20.9029 10.9177 20.9255C10.4141 20.9368 10 20.982 10 21.0159C10 21.1289 11.3654 21.7616 12.16 22.0102C14.5438 22.7446 17.3753 22.4282 19.5017 21.1741C21.0126 20.2815 22.5235 18.5076 23.2286 16.7902C23.6091 15.875 23.9896 14.2028 23.9896 13.4006C23.9896 12.8808 24.0232 12.813 24.6499 12.1916C25.0192 11.83 25.3662 11.4346 25.4333 11.3216C25.5452 11.1069 25.534 11.1069 24.9633 11.299C24.012 11.638 23.8777 11.5928 24.3477 11.0843C24.6947 10.7228 25.1088 10.0674 25.1088 9.87536C25.1088 9.84146 24.9409 9.89796 24.7506 9.99964C24.5492 10.1126 24.1015 10.2821 23.7658 10.3838L23.1614 10.5759L22.613 10.203C22.3108 9.99964 21.8856 9.77367 21.6617 9.70588C21.0909 9.5477 20.218 9.57029 19.7032 9.75107C18.3042 10.2595 17.4201 11.5702 17.5208 13.0051Z" fill="white"/>
</g>
<defs>
<filter id="filter0_dd" x="0" y="0" width="36" height="38" filterUnits="userSpaceOnUse" color-interpolation-filters="sRGB">
<feFlood flood-opacity="0" result="BackgroundImageFix"/>
<feColorMatrix in="SourceAlpha" type="matrix" values="0 0 0 0 0 0 0 0 0 0 0 0 0 0 0 0 0 0 127 0" result="hardAlpha"/>
<feMorphology radius="2" operator="erode" in="SourceAlpha" result="effect1_dropShadow"/>
<feOffset dy="4"/>
<feGaussianBlur stdDeviation="2"/>
<feColorMatrix type="matrix" values="0 0 0 0 0.0941176 0 0 0 0 0.152941 0 0 0 0 0.294118 0 0 0 0.08 0"/>
<feBlend mode="normal" in2="BackgroundImageFix" result="effect1_dropShadow"/>
<feColorMatrix in="SourceAlpha" type="matrix" values="0 0 0 0 0 0 0 0 0 0 0 0 0 0 0 0 0 0 127 0" result="hardAlpha"/>
<feMorphology radius="2" operator="erode" in="SourceAlpha" result="effect2_dropShadow"/>
<feOffset dy="2"/>
<feGaussianBlur stdDeviation="2"/>
<feColorMatrix type="matrix" values="0 0 0 0 0.0941176 0 0 0 0 0.152941 0 0 0 0 0.294118 0 0 0 0.12 0"/>
<feBlend mode="normal" in2="effect1_dropShadow" result="effect2_dropShadow"/>
<feBlend mode="normal" in="SourceGraphic" in2="effect2_dropShadow" result="shape"/>
</filter>
</defs>
</svg>
