<svg width="36" height="38" viewBox="0 0 36 38" fill="none" xmlns="http://www.w3.org/2000/svg">
<g filter="url(#filter0_dd)">
<path d="M2 16C2 7.16344 9.16344 0 18 0C26.8366 0 34 7.16344 34 16C34 24.8366 26.8366 32 18 32C9.16344 32 2 24.8366 2 16Z" fill="#FF0000"/>
<path d="M26.1768 12.0488C25.9805 11.2948 25.4022 10.701 24.6679 10.4995C23.3371 10.1333 18.0001 10.1333 18.0001 10.1333C18.0001 10.1333 12.6632 10.1333 11.3323 10.4995C10.5979 10.701 10.0196 11.2948 9.82335 12.0488C9.4668 13.4153 9.4668 16.2666 9.4668 16.2666C9.4668 16.2666 9.4668 19.1178 9.82335 20.4845C10.0196 21.2385 10.5979 21.8322 11.3323 22.0338C12.6632 22.4 18.0001 22.4 18.0001 22.4C18.0001 22.4 23.3371 22.4 24.6679 22.0338C25.4022 21.8322 25.9805 21.2385 26.1768 20.4845C26.5335 19.1178 26.5335 16.2666 26.5335 16.2666C26.5335 16.2666 26.5335 13.4153 26.1768 12.0488Z" fill="white"/>
<path d="M16.3999 19.2V13.8667L20.6666 16.5335L16.3999 19.2Z" fill="#FF0000"/>
</g>
<defs>
<filter id="filter0_dd" x="0" y="0" width="36" height="38" filterUnits="userSpaceOnUse" color-interpolation-filters="sRGB">
<feFlood flood-opacity="0" result="BackgroundImageFix"/>
<feColorMatrix in="SourceAlpha" type="matrix" values="0 0 0 0 0 0 0 0 0 0 0 0 0 0 0 0 0 0 127 0" result="hardAlpha"/>
<feMorphology radius="2" operator="erode" in="SourceAlpha" result="effect1_dropShadow"/>
<feOffset dy="4"/>
<feGaussianBlur stdDeviation="2"/>
<feColorMatrix type="matrix" values="0 0 0 0 0.0941176 0 0 0 0 0.152941 0 0 0 0 0.294118 0 0 0 0.08 0"/>
<feBlend mode="normal" in2="BackgroundImageFix" result="effect1_dropShadow"/>
<feColorMatrix in="SourceAlpha" type="matrix" values="0 0 0 0 0 0 0 0 0 0 0 0 0 0 0 0 0 0 127 0" result="hardAlpha"/>
<feMorphology radius="2" operator="erode" in="SourceAlpha" result="effect2_dropShadow"/>
<feOffset dy="2"/>
<feGaussianBlur stdDeviation="2"/>
<feColorMatrix type="matrix" values="0 0 0 0 0.0941176 0 0 0 0 0.152941 0 0 0 0 0.294118 0 0 0 0.12 0"/>
<feBlend mode="normal" in2="effect1_dropShadow" result="effect2_dropShadow"/>
<feBlend mode="normal" in="SourceGraphic" in2="effect2_dropShadow" result="shape"/>
</filter>
</defs>
</svg>
